<svg width="41" height="44" viewBox="0 0 41 44" fill="none" xmlns="http://www.w3.org/2000/svg">
<path fill-rule="evenodd" clip-rule="evenodd" d="M36.5917 3.04692C39.9229 4.60029 41.3641 8.56001 39.8107 11.8912L27.8571 37.5258C26.3038 40.857 22.344 42.2982 19.0128 40.7449L18.5102 40.5105C15.179 38.9571 13.7378 34.9974 15.2911 31.6662L27.2448 6.03159C28.7981 2.70039 32.7578 1.25917 36.089 2.81254L36.5917 3.04692Z" fill="#E8EAF0"/>
<mask id="mask0_3973_5634" style="mask-type:alpha" maskUnits="userSpaceOnUse" x="14" y="2" width="27" height="40">
<path fill-rule="evenodd" clip-rule="evenodd" d="M36.5917 3.04692C39.9229 4.60029 41.3641 8.56001 39.8107 11.8912L27.8571 37.5258C26.3038 40.857 22.344 42.2982 19.0128 40.7449L18.5102 40.5105C15.179 38.9571 13.7378 34.9974 15.2911 31.6662L27.2448 6.03159C28.7981 2.70039 32.7578 1.25917 36.089 2.81254L36.5917 3.04692Z" fill="white"/>
</mask>
<g mask="url(#mask0_3973_5634)">
</g>
<circle cx="34.0673" cy="7.77516" r="6.93251" fill="#7484AE"/>
<rect y="5.85953" width="13.865" height="41.5951" rx="6.93251" transform="rotate(-25 0 5.85953)" fill="#7484AE"/>
</svg>
